# xmcd
#
# Track frame offsets: 
#        183
#        21018
#        41335
#        62478
#        77370
#        91945
#
# Disc length: 1402 seconds
#
# Revision: 2
# Processed by: cddbd v1.5.1PL0 Copyright (c) Steve Scherf et al.
# Submitted via: ExactAudioCopy v0.95a5
#
DISCID=34057806
DTITLE=Ben Sidran - Ben Sidran - Clementine
DYEAR=1988
DGENRE=Jazz
TTITLE0=Chances Are
TTITLE1=Broad Daylight
TTITLE2=Walking With The Blues
TTITLE3=Spread Your Wings
TTITLE4=I Was A Little Too Lonely And You Were A Little Too Late
TTITLE5=Face Your Fears
EXTD=more info
EXTT0=
EXTT1=
EXTT2=
EXTT3=
EXTT4=
EXTT5=
PLAYORDER=
